<?xml version="1.0" encoding="UTF-8"?>
<svg version="1.1" xmlns="http://www.w3.org/2000/svg" width="202" height="246">
<path d="M0 0 C66.66 0 133.32 0 202 0 C202 81.18 202 162.36 202 246 C135.34 246 68.68 246 0 246 C0 164.82 0 83.64 0 0 Z " fill="#FEFEFE" transform="translate(0,0)"/>
<path d="M0 0 C7.19307529 6.80853982 10.38943691 12.31033625 10.85546875 22.28125 C10.90054882 31.29726425 10.24593925 39.78213284 8.6875 48.6875 C9.3475 48.6875 10.0075 48.6875 10.6875 48.6875 C12.19225088 51.69700175 12.11142641 53.29608868 11.6875 56.6875 C10.80316785 58.26026794 9.85783109 59.79932935 8.875 61.3125 C6.41477071 65.12930432 5.08855972 68.37564363 4.125 72.8125 C2.72217552 79.19494121 0.7090632 84.74155974 -4.95703125 88.390625 C-7.71211379 90.59969567 -7.71211379 90.59969567 -7.80078125 94.578125 C-7.76773738 96.0320554 -7.70836963 97.48558575 -7.625 98.9375 C-7.60244141 99.68257813 -7.57988281 100.42765625 -7.55664062 101.1953125 C-7.49793561 103.026909 -7.40825757 104.85746653 -7.3125 106.6875 C-6.79042969 106.91824219 -6.26835938 107.14898437 -5.73046875 107.38671875 C5.1993757 112.2295395 16.04322659 117.17589947 26.66943359 122.65625 C28.8286373 123.75962242 31.00152883 124.83286719 33.17578125 125.90625 C51.96907536 135.30694123 58.95327813 147.91104497 65.5625 167.4375 C67.69604715 173.95673677 69.46880148 180.35135758 70.35546875 187.171875 C70.78483441 190.42495133 71.53652905 193.56663335 72.3203125 196.75 C72.6875 198.6875 72.6875 198.6875 72.6875 202.6875 C7.0175 202.6875 -58.6525 202.6875 -126.3125 202.6875 C-126.3125 151.89094288 -126.3125 151.89094288 -115.3125 138.6875 C-108.61990209 133.2077131 -100.99295492 129.08773776 -93.4375 124.9375 C-92.35774902 124.3391333 -91.27799805 123.7407666 -90.16552734 123.12426758 C-87.95809215 121.9021149 -85.74927658 120.68245199 -83.5390625 119.46533203 C-80.46999858 117.77428153 -77.4061418 116.07418999 -74.34375 114.37109375 C-72.54188756 113.37199734 -70.73981608 112.37327783 -68.9375 111.375 C-67.69057373 110.68229004 -67.69057373 110.68229004 -66.41845703 109.97558594 C-65.65388184 109.55438477 -64.88930664 109.13318359 -64.1015625 108.69921875 C-63.43850098 108.33272217 -62.77543945 107.96622559 -62.09228516 107.58862305 C-60.3125 106.6875 -60.3125 106.6875 -57.3125 105.6875 C-55.89615167 102.85480334 -55.9661995 100.21283562 -55.75 97.0625 C-55.62431641 95.27972656 -55.62431641 95.27972656 -55.49609375 93.4609375 C-55.43550781 92.54570312 -55.37492187 91.63046875 -55.3125 90.6875 C-55.90933594 90.42324219 -56.50617188 90.15898437 -57.12109375 89.88671875 C-62.83772499 86.75836618 -66.42920754 80.75588681 -68.3125 74.6875 C-68.52997017 71.66708097 -68.49746204 68.70854667 -68.3125 65.6875 C-69.3025 65.6875 -70.2925 65.6875 -71.3125 65.6875 C-75.66565364 50.69824473 -76.49465634 23.19885873 -69.52734375 8.71875 C-63.4617918 -1.42300888 -53.49191977 -7.86976836 -42.3125 -11.3125 C-26.88592172 -14.50420585 -11.88478187 -10.19949522 0 0 Z " fill="#878CC5" transform="translate(127.3125,43.3125)"/>
<path d="M0 0 C7.19307529 6.80853982 10.38943691 12.31033625 10.85546875 22.28125 C10.90054882 31.29726425 10.24593925 39.78213284 8.6875 48.6875 C9.3475 48.6875 10.0075 48.6875 10.6875 48.6875 C12.19225088 51.69700175 12.11142641 53.29608868 11.6875 56.6875 C10.80316785 58.26026794 9.85783109 59.79932935 8.875 61.3125 C6.41477071 65.12930432 5.08855972 68.37564363 4.125 72.8125 C2.71869397 79.21078122 0.69427021 84.72153487 -4.953125 88.4140625 C-7.68970093 90.57452205 -7.68970093 90.57452205 -7.7734375 94.3671875 C-7.75733831 95.76582571 -7.72821317 97.16436179 -7.6875 98.5625 C-7.82459874 105.82873298 -7.82459874 105.82873298 -9.56640625 108.89453125 C-11.40143806 110.50816711 -13.13191742 111.58350667 -15.3125 112.6875 C-16.59060547 113.38746094 -16.59060547 113.38746094 -17.89453125 114.1015625 C-25.80208526 118.24637119 -33.13855806 120.5995457 -42.01171875 117.8515625 C-47.836566 115.19336268 -53.66600308 111.72368818 -56.3125 105.6875 C-56.58297941 100.55879431 -56.09713119 95.75133825 -55.3125 90.6875 C-55.90933594 90.42324219 -56.50617188 90.15898437 -57.12109375 89.88671875 C-62.83772499 86.75836618 -66.42920754 80.75588681 -68.3125 74.6875 C-68.52997017 71.66708097 -68.49746204 68.70854667 -68.3125 65.6875 C-69.3025 65.6875 -70.2925 65.6875 -71.3125 65.6875 C-75.66565364 50.69824473 -76.49465634 23.19885873 -69.52734375 8.71875 C-63.4617918 -1.42300888 -53.49191977 -7.86976836 -42.3125 -11.3125 C-26.88592172 -14.50420585 -11.88478187 -10.19949522 0 0 Z " fill="#F4C39E" transform="translate(127.3125,43.3125)"/>
<path d="M0 0 C7.09684778 6.71745655 10.28236786 12.15084874 10.890625 21.96484375 C10.99858213 30.39449627 10.38255989 38.57223452 9.3125 46.9375 C9.18649414 47.93773193 9.06048828 48.93796387 8.93066406 49.96850586 C8.33807105 54.29583876 7.83784797 57.83483943 5.6875 61.6875 C5.55214844 60.56214844 5.41679687 59.43679687 5.27734375 58.27734375 C3.96167988 48.53887227 1.7492439 40.45067356 -2.7890625 31.7265625 C-4.00758168 29.29577296 -4.82979677 27.33584475 -5.3125 24.6875 C-5.89515625 24.74550781 -6.4778125 24.80351563 -7.078125 24.86328125 C-13.76574008 25.23131038 -18.32565505 23.65392019 -24.3828125 20.93359375 C-32.77923867 17.36231382 -42.29098956 16.6630794 -51.3125 17.6875 C-54.27064329 19.00633888 -55.85456381 19.82824519 -57.38671875 22.703125 C-57.58910156 23.44046875 -57.79148437 24.1778125 -58 24.9375 C-58.23460938 25.73800781 -58.46921875 26.53851563 -58.7109375 27.36328125 C-59.20645053 29.2777634 -59.67010903 31.20046128 -60.125 33.125 C-61.78730899 38.11192696 -64.53274559 42.25448058 -67.3125 46.6875 C-69.02410615 50.11071229 -68.26795825 53.97777929 -68.15234375 57.7421875 C-68.311076 60.66131227 -68.79812677 62.22887053 -70.3125 64.6875 C-72.53902525 61.34771212 -72.61370513 60.04171879 -72.76171875 56.12109375 C-72.80594971 55.00404053 -72.85018066 53.8869873 -72.89575195 52.73608398 C-72.93015381 51.54442627 -72.96455566 50.35276855 -73 49.125 C-73.03762451 47.90949463 -73.07524902 46.69398926 -73.11401367 45.44165039 C-73.99592712 11.85118869 -73.99592712 11.85118869 -64.1328125 1.34375 C-45.25324025 -15.8342299 -19.55272763 -16.78011042 0 0 Z " fill="#635444" transform="translate(127.3125,43.3125)"/>
<path d="M0 0 C0.495 1.485 0.495 1.485 1 3 C-1.43898441 4.74703914 -3.88827802 6.47431363 -6.359375 8.17578125 C-7.84959683 9.20526881 -9.32892657 10.25251664 -10.765625 11.35546875 C-15.28833943 14.51908465 -20.07367618 14.867107 -25.5 14.72265625 C-33.27804691 13.1166979 -40.62591568 7.57620953 -45 1 C-40.57917156 2.61889492 -37.1086078 4.8671776 -33.28125 7.5625 C-28.36192051 10.66235146 -23.82866947 11.86877562 -18 11 C-15.38395847 10.0172936 -13.10769967 8.67671074 -10.75 7.1875 C-10.151875 6.83107422 -9.55375 6.47464844 -8.9375 6.10742188 C-5.82764765 4.2325662 -2.85654348 2.24139674 0 0 Z " fill="#B5916F" transform="translate(117,135)"/>
<path d="M0 0 C0.99 0 1.98 0 3 0 C2.4609807 9.67941047 1.87445886 19.34374149 1 29 C0.67 29 0.34 29 0 29 C0 19.43 0 9.86 0 0 Z " fill="#F4F6F7" transform="translate(0,217)"/>
<path d="M0 0 C0.33 0 0.66 0 1 0 C1.33 6.27 1.66 12.54 2 19 C-2.29044016 14.70955984 -2.6958283 13.80350825 -3.1171875 8.26171875 C-2.94849704 5.00599291 -1.73751122 2.71051751 0 0 Z " fill="#DCBC9F" transform="translate(54,88)"/>
<path d="M0 0 C0.33 0 0.66 0 1 0 C1 1.65 1 3.3 1 5 C1.99 5 2.98 5 4 5 C3.88637738 6.4800841 3.75877092 7.95910074 3.625 9.4375 C3.52058594 10.67306641 3.52058594 10.67306641 3.4140625 11.93359375 C3.27742188 12.61550781 3.14078125 13.29742187 3 14 C2.01 14.495 2.01 14.495 1 15 C-0.09506492 11.71480525 -0.09960608 9.26336585 -0.0625 5.8125 C-0.05347656 4.72582031 -0.04445312 3.63914062 -0.03515625 2.51953125 C-0.02355469 1.68808594 -0.01195312 0.85664062 0 0 Z " fill="#725F49" transform="translate(55,93)"/>
<path d="M0 0 C1.40234375 1.42578125 1.40234375 1.42578125 2.9375 3.3125 C4.86463171 5.66350211 6.81719293 7.88235135 9 10 C6.69 9.34 4.38 8.68 2 8 C2 7.01 2 6.02 2 5 C0.35 5 -1.3 5 -3 5 C-3.66 3.68 -4.32 2.36 -5 1 C-2 0 -2 0 0 0 Z " fill="#9393C3" transform="translate(72,149)"/>
<path d="M0 0 C0.66 0 1.32 0 2 0 C2 3.96 2 7.92 2 12 C1.01 12.495 1.01 12.495 0 13 C-0.19397476 11.02145742 -0.38001321 9.0421352 -0.5625 7.0625 C-0.66691406 5.96035156 -0.77132812 4.85820312 -0.87890625 3.72265625 C-0.91886719 2.82417969 -0.95882812 1.92570313 -1 1 C-0.67 0.67 -0.34 0.34 0 0 Z " fill="#F0CEB4" transform="translate(117,138)"/>
<path d="M0 0 C0.33 0 0.66 0 1 0 C1 3.3 1 6.6 1 10 C0.01 9.67 -0.98 9.34 -2 9 C-2.25 3.375 -2.25 3.375 0 0 Z " fill="#EFC8A7" transform="translate(53,91)"/>
<path d="M0 0 C0.99 0 1.98 0 3 0 C3.25 7.5 3.25 7.5 1 12 C0.67 8.04 0.34 4.08 0 0 Z " fill="#EAEEF7" transform="translate(0,217)"/>
<path d="M0 0 C2.64 1.98 5.28 3.96 8 6 C6 7 6 7 3.4375 6.375 C1 5 1 5 0.1875 2.375 C0.125625 1.59125 0.06375 0.8075 0 0 Z " fill="#9B91B5" transform="translate(73,152)"/>
<path d="M0 0 C0 3 0 3 -1.3125 4.38671875 C-2.875 5.59114583 -4.4375 6.79557292 -6 8 C-6 5 -6 5 -4.6875 3.61328125 C-3.125 2.40885417 -1.5625 1.20442708 0 0 Z " fill="#FEF6E9" transform="translate(126,128)"/>
<path d="M0 0 C0.6875 1.6875 0.6875 1.6875 1 4 C-0.4375 6.75 -0.4375 6.75 -2 9 C-2.6875 7.3125 -2.6875 7.3125 -3 5 C-1.5625 2.25 -1.5625 2.25 0 0 Z " fill="#FCF1E4" transform="translate(135,105)"/>
<path d="M0 0 C0 0.66 0 1.32 0 2 C-3.76624671 3.25541557 -5.37188934 2.37061958 -9 1 C-9 0.67 -9 0.34 -9 0 C-3.375 -1.125 -3.375 -1.125 0 0 Z " fill="#DFB99B" transform="translate(123,68)"/>
</svg>
